# xmcd
#
# Track frame offsets: 
#        150
#        23663
#        45762
#        63710
#        87744
#        108203
#        129067
#        148886
#        169650
#        189138
#        213946
#        234265
#        253471
#
# Disc length: 3697 seconds
#
# Revision: 0
# Processed by: cddbd v1.5.2PL0 Copyright (c) Steve Scherf et al.
# Submitted via: ExactAudioCopyFreeDBPlugin 1.0
#
DISCID=aa0e6f0d
DTITLE=童麗 - 愛的月光
DYEAR=1900
DGENRE=Pop
TTITLE0=桃花謠
TTITLE1=馬蘭花
TTITLE2=愛的月光
TTITLE3=新走西口
TTITLE4=美麗的羅源灣
TTITLE5=拋繡球
TTITLE6=月亮花兒開
TTITLE7=口弦
TTITLE8=阿瓦爾古麗
TTITLE9=懷念戰友
TTITLE10=蝴蝶泉邊
TTITLE11=九九艷陽天
TTITLE12=歌唱二小放牛郎
EXTD=
EXTT0=
EXTT1=
EXTT2=
EXTT3=
EXTT4=
EXTT5=
EXTT6=
EXTT7=
EXTT8=
EXTT9=
EXTT10=
EXTT11=
EXTT12=
PLAYORDER=
